<?xml version="1.0" encoding="UTF-8"?>
<svg width="220px" height="54px" viewBox="0 0 220 54" version="1.1" xmlns="http://www.w3.org/2000/svg" xmlns:xlink="http://www.w3.org/1999/xlink">
    <title>bootstraplogo</title>
    <g id="HiFi" stroke="none" stroke-width="1" fill="none" fillRule="evenodd">
        <g id="Artboard" transform="translate(-930.000000, -151.000000)" fill="#563D7C" fillRule="nonzero">
            <g id="bootstraplogo" transform="translate(930.000000, 151.000000)">
                <path d="M8.04878049,0.0365853659 C6.87804878,0.182926829 5.96341463,0.475609756 4.90243902,0.987804878 C3.18292683,1.86585366 1.86585366,3.18292683 0.987804878,4.90243902 C0.548780488,5.7804878 0.329268293,6.32926829 0.146341463,7.24390244 C0,7.86585366 0,8.81707317 0,27 C0,45.1829268 0,46.1341463 0.146341463,46.7560976 C0.329268293,47.6707317 0.548780488,48.2195122 0.987804878,49.097561 C1.86585366,50.8170732 3.18292683,52.1341463 4.90243902,53.0121951 C5.7804878,53.4512195 6.32926829,53.6707317 7.24390244,53.8536585 C7.86585366,54 8.81707317,54 27,54 C45.1829268,54 46.1341463,54 46.7560976,53.8536585 C47.6707317,53.6707317 48.2195122,53.4512195 49.097561,53.0121951 C50.8170732,52.1341463 52.1341463,50.8170732 53.0121951,49.097561 C53.4512195,48.2195122 53.6707317,47.6707317 53.8536585,46.7560976 C54,46.1341463 54,45.1829268 54,27 C54,8.81707317 54,7.86585366 53.8536585,7.24390244 C53.6707317,6.32926829 53.4512195,5.7804878 53.0121951,4.90243902 C51.7682927,2.48780488 49.6097561,0.841463415 46.8658537,0.146341463 C46.3170732,-1.03981864e-14 45.3292683,-1.03981864e-14 27.2926829,-1.03981864e-14 C16.8292683,-1.03981864e-14 8.19512195,0.0365853659 8.04878049,0.0365853659 Z M32.3780488,11.8902439 C36.0365854,12.5853659 38.195122,14.2317073 39,16.9756098 C39.402439,18.3658537 39.4390244,20.304878 39.0731707,21.6219512 C38.9268293,22.2073171 38.4512195,23.195122 38.1219512,23.6707317 C37.5,24.5487805 36.4390244,25.4268293 35.3414634,25.9756098 C35.0853659,26.1219512 34.8658537,26.2317073 34.8658537,26.2682927 C34.8658537,26.304878 35.0487805,26.3780488 35.2682927,26.4146341 C35.4878049,26.4512195 35.9268293,26.597561 36.2560976,26.7439024 C39.1097561,27.8780488 40.7560976,30.6219512 40.7560976,34.3902439 C40.7560976,36.5853659 40.0609756,38.5609756 38.7804878,39.9146341 C37.3170732,41.4878049 35.304878,42.4390244 32.3414634,42.9878049 C31.6829268,43.097561 30.7317073,43.1341463 23.1585366,43.1341463 L14.6707317,43.1707317 L14.6707317,11.6707317 L23.2317073,11.7073171 C30.5853659,11.7804878 31.8292683,11.7804878 32.3780488,11.8902439 L32.3780488,11.8902439 Z M20.195122,20.5609756 L20.195122,24.9146341 L25.2439024,24.8780488 C29.6707317,24.8414634 30.3292683,24.8414634 30.695122,24.7317073 C31.902439,24.3658537 32.9268293,23.597561 33.3658537,22.6463415 C33.695122,21.9512195 33.804878,21.4756098 33.804878,20.4512195 C33.804878,18.5121951 33.2195122,17.3780488 31.9390244,16.7560976 C30.8414634,16.2439024 30.8414634,16.2439024 25.2804878,16.2073171 L20.195122,16.1707317 L20.195122,20.5609756 L20.195122,20.5609756 Z M20.195122,33.804878 L20.195122,38.7439024 L25.6829268,38.7073171 C31.0609756,38.6707317 31.2073171,38.6707317 31.7926829,38.5243902 C32.6707317,38.2682927 33.2926829,37.9390244 33.8780488,37.3170732 C34.8292683,36.402439 35.1585366,35.3780488 35.1585366,33.7682927 C35.1585366,32.1585366 34.7560976,31.1341463 33.8414634,30.2195122 C33.2195122,29.6341463 32.6341463,29.3414634 31.6829268,29.0853659 C31.0609756,28.9390244 30.8780488,28.902439 25.6097561,28.902439 L20.195122,28.8658537 L20.195122,33.804878 Z" id="Shape"></path>
                <path d="M72.1829268,11.8170732 C72.2926829,11.7804878 72.402439,11.7439024 72.5121951,11.7439024 C76.6097561,11.7439024 80.6707317,11.7439024 84.7682927,11.8170732 C86.1585366,11.8536585 87.4390244,12.3292683 88.5731707,13.1707317 C91.1707317,15.0731707 91.4268293,20.4512195 87.8414634,22.3902439 C87.6585366,22.5 87.4756098,22.5731707 87.2195122,22.7195122 C87.9146341,23.0487805 88.5731707,23.2682927 89.1219512,23.6341463 C91.2804878,25.097561 92.1585366,28.3536585 91.1707317,31.2073171 C90.3292683,33.695122 88.3170732,34.7560976 86.0121951,35.304878 C85.2439024,35.4878049 84.4390244,35.5609756 83.6707317,35.597561 C79.8658537,35.6341463 76.0243902,35.597561 72.1829268,35.597561 C72.1829268,27.695122 72.1829268,19.7560976 72.1829268,11.8170732 Z M76.2439024,32.1219512 C79.097561,32.1219512 81.8414634,32.195122 84.5853659,32.0853659 C86.304878,32.0121951 87.5487805,30.1463415 87.4756098,28.3170732 C87.3658537,26.4878049 86.2682927,24.9512195 84.5853659,24.8780488 C81.8414634,24.7317073 79.1341463,24.7682927 76.3902439,24.7682927 C76.3536585,24.7682927 76.3170732,24.8414634 76.2439024,24.8780488 L76.2439024,32.1219512 Z M76.2804878,21.6585366 C78.804878,21.6585366 81.2560976,21.7682927 83.7073171,21.6219512 C85.5,21.5121951 86.5243902,20.0853659 86.4512195,18.0731707 C86.3780488,16.3170732 85.3536585,15.2560976 83.5243902,15.1829268 C81.2195122,15.1097561 78.9146341,15.1463415 76.5731707,15.1463415 C76.4634146,15.1463415 76.3902439,15.1829268 76.2804878,15.2195122 L76.2804878,21.6585366 L76.2804878,21.6585366 Z M202.719512,18.402439 L206.121951,18.402439 L206.121951,20.2682927 C206.487805,19.9756098 206.963415,19.6463415 207.402439,19.2804878 C210,17.0121951 216.182927,17.2682927 218.304878,21.8780488 C220.134146,25.8292683 220.060976,29.8170732 217.573171,33.4756098 C216.219512,35.5243902 214.097561,36.2560976 211.719512,36.1097561 C209.634146,36 207.804878,35.3414634 206.378049,33.3658537 L206.378049,42.0365854 L202.719512,42.0365854 C202.719512,34.1341463 202.719512,26.2682927 202.719512,18.402439 Z M206.158537,27.1097561 C206.304878,27.9878049 206.378049,28.8658537 206.634146,29.7073171 C207.146341,31.5731707 208.756098,32.9634146 210.439024,33.1097561 C212.670732,33.2560976 214.280488,32.4146341 215.085366,30.402439 C216.109756,27.8414634 216.073171,25.2439024 214.573171,22.8658537 C212.817073,20.0487805 208.573171,20.2682927 207.073171,23.2317073 C206.45122,24.4390244 206.158537,25.7195122 206.158537,27.1097561 L206.158537,27.1097561 Z M200.304878,33.1463415 C200.304878,33.8414634 200.341463,34.5731707 200.304878,35.304878 C200.304878,35.4878049 200.085366,35.7804878 199.939024,35.7804878 C198.878049,35.8536585 197.817073,36.0365854 196.756098,35.9268293 C195.841463,35.8170732 195.329268,35.0121951 195.036585,34.097561 C192.841463,35.9268293 190.317073,36.2926829 187.646341,35.9634146 C185.414634,35.6707317 183.54878,33.804878 183.402439,31.7195122 C183.182927,28.8658537 184.243902,27 186.768293,26.304878 C188.52439,25.8292683 190.390244,25.6463415 192.182927,25.3170732 C192.621951,25.2439024 193.060976,25.1707317 193.5,25.0609756 C194.341463,24.8414634 194.926829,24.3658537 194.963415,23.4146341 C195.036585,22.4268293 194.634146,21.6585366 193.756098,21.2926829 C192.219512,20.6707317 190.609756,20.6707317 189.073171,21.402439 C188.378049,21.7317073 187.97561,22.3902439 187.609756,23.5609756 L184.02439,23.5609756 C184.02439,22.1707317 184.5,21 185.414634,20.0121951 C186.621951,18.695122 188.195122,18.1829268 189.878049,18.0365854 C191.634146,17.8536585 193.390244,17.8536585 195.109756,18.4390244 C197.414634,19.2439024 198.512195,20.7804878 198.512195,23.2682927 C198.512195,25.902439 198.512195,28.5365854 198.512195,31.1707317 C198.47561,33 198.47561,33 200.304878,33.1463415 L200.304878,33.1463415 Z M194.743902,27.2195122 C193.609756,27.402439 192.585366,27.5853659 191.560976,27.804878 C190.5,28.0243902 189.402439,28.2439024 188.378049,28.6097561 C187.390244,28.9756098 187.02439,29.9268293 187.060976,30.9512195 C187.097561,31.9390244 187.756098,32.4878049 188.597561,32.7804878 C190.060976,33.2926829 191.52439,33.2195122 192.878049,32.5609756 C193.865854,32.0853659 194.634146,31.3170732 194.707317,30.1463415 C194.817073,29.1585366 194.743902,28.1707317 194.743902,27.2195122 L194.743902,27.2195122 Z M102.512195,17.8902439 C108.146341,17.8170732 111.439024,22.0243902 111.073171,27.7317073 C110.963415,29.7073171 110.414634,31.5731707 109.134146,33.1463415 C107.743902,34.8292683 105.987805,35.7439024 103.829268,35.9634146 C102.036585,36.1829268 100.317073,36.0365854 98.6707317,35.2682927 C96.2195122,34.1341463 94.7926829,32.1585366 94.2073171,29.4878049 C93.804878,27.6585366 93.804878,25.8658537 94.2804878,24.0731707 C95.304878,20.1585366 98.304878,17.9268293 102.512195,17.8902439 Z M97.6097561,27.0365854 C97.7560976,27.8780488 97.8292683,28.7195122 98.0487805,29.5609756 C98.6341463,31.6463415 100.243902,33 102.073171,33.1097561 C104.341463,33.2195122 105.914634,32.2317073 106.792683,30.1097561 C107.634146,27.9878049 107.634146,25.8658537 106.719512,23.7804878 C105.365854,20.7073171 101.743902,19.902439 99.402439,22.2073171 C98.0487805,23.4512195 97.7195122,25.1707317 97.6097561,27.0365854 Z M122.012195,17.8902439 C127.097561,17.8902439 130.536585,21.3658537 130.609756,26.5609756 C130.646341,28.7560976 130.280488,30.8414634 129.036585,32.6707317 C127.243902,35.304878 124.646341,36.2195122 121.646341,36.0731707 C120.54878,36.0365854 119.378049,35.7804878 118.353659,35.3414634 C115.939024,34.3902439 114.47561,32.4512195 113.853659,29.9268293 C113.304878,27.695122 113.341463,25.4634146 114.073171,23.2682927 C115.134146,19.902439 118.170732,17.8902439 122.012195,17.8902439 Z M126.878049,26.5609756 C126.804878,26.0853659 126.731707,25.2073171 126.47561,24.3658537 C125.853659,22.2439024 124.207317,20.9268293 122.158537,20.8536585 C120.219512,20.7804878 118.463415,21.9146341 117.731707,23.9634146 C116.853659,26.3780488 116.926829,28.7560976 118.243902,30.9878049 C119.634146,33.3292683 122.780488,33.8414634 124.865854,32.0853659 C126.439024,30.7682927 126.804878,28.9390244 126.878049,26.5609756 L126.878049,26.5609756 Z M158.231707,23.195122 C157.060976,23.195122 155.963415,23.195122 154.829268,23.195122 C154.682927,23.195122 154.463415,23.0487805 154.426829,22.9390244 C153.804878,21.1463415 152.304878,20.9268293 150.768293,20.9268293 C150.146341,20.9268293 149.45122,21.0731707 148.865854,21.3292683 C147.585366,21.8780488 147.47561,23.3414634 148.646341,24.0365854 C149.45122,24.5121951 150.439024,24.7682927 151.353659,25.0609756 C152.670732,25.4268293 154.02439,25.6829268 155.341463,26.0487805 C158.670732,27.0731707 159.987805,30.4756098 158.121951,33.2926829 C157.243902,34.6463415 155.890244,35.3780488 154.353659,35.7439024 C152.085366,36.2926829 149.817073,36.3292683 147.621951,35.5243902 C145.243902,34.6463415 144,32.8902439 143.817073,30.2560976 L147.439024,30.2560976 C148.463415,33 151.390244,34.0609756 154.097561,32.6707317 C154.719512,32.3414634 155.158537,31.902439 155.195122,31.1341463 C155.231707,30.3292683 154.939024,29.6341463 154.207317,29.3414634 C152.926829,28.8658537 151.609756,28.5365854 150.292683,28.1341463 C149.195122,27.804878 148.097561,27.5853659 147.073171,27.1463415 C145.060976,26.3414634 144.182927,24.9512195 144.182927,22.7926829 C144.182927,20.9268293 145.243902,19.3536585 147.146341,18.6585366 C149.743902,17.7073171 152.414634,17.5609756 155.012195,18.6219512 C156.768293,19.3170732 157.829268,20.7073171 158.268293,22.5731707 C158.268293,22.7195122 158.231707,22.902439 158.231707,23.195122 Z M138.585366,18.3292683 L141.95122,18.3292683 L141.95122,21.1097561 L138.658537,21.1097561 C138.621951,21.4390244 138.621951,21.695122 138.621951,21.9146341 C138.621951,24.7317073 138.621951,27.5487805 138.621951,30.3658537 C138.621951,30.7317073 138.658537,31.1341463 138.695122,31.5 C138.768293,32.2317073 139.170732,32.6707317 139.902439,32.7439024 C140.560976,32.7804878 141.256098,32.7439024 141.987805,32.7439024 L141.987805,35.5243902 C140.45122,35.9268293 138.914634,35.8902439 137.414634,35.5609756 C135.658537,35.1585366 134.963415,33.9146341 134.926829,31.6097561 C134.890244,28.4268293 134.926829,25.2804878 134.926829,22.097561 L134.926829,21.1829268 L132.146341,21.1829268 L132.146341,18.3658537 L134.890244,18.3658537 L134.890244,13.2073171 L138.658537,13.2073171 C138.585366,14.8902439 138.585366,16.5731707 138.585366,18.3292683 Z M169.902439,35.6707317 C168.47561,35.6707317 167.085366,35.7073171 165.731707,35.6707317 C164.414634,35.597561 163.390244,34.7195122 163.097561,33.402439 C162.95122,32.6341463 162.841463,31.8658537 162.841463,31.097561 C162.804878,28.1341463 162.841463,25.1341463 162.841463,22.1707317 L162.841463,21.2195122 L160.060976,21.2195122 L160.060976,18.4390244 L162.804878,18.4390244 L162.804878,13.2439024 L166.573171,13.2439024 L166.573171,18.3658537 L169.902439,18.3658537 L169.902439,21.1829268 L166.719512,21.1829268 C166.682927,21.4390244 166.646341,21.6219512 166.646341,21.7682927 C166.646341,24.804878 166.646341,27.8414634 166.646341,30.8780488 C166.646341,32.4878049 167.085366,32.8536585 168.621951,32.8536585 C169.02439,32.8536585 169.463415,32.8536585 169.939024,32.8536585 L169.902439,35.6707317 L169.902439,35.6707317 Z M176.158537,18.402439 L176.158537,21.3292683 C177.585366,18.8414634 179.597561,17.5243902 182.560976,17.9634146 L182.560976,21.5853659 C181.170732,21.3658537 179.817073,21.3292683 178.609756,22.2073171 C177.036585,23.3414634 176.487805,25.0609756 176.45122,26.8902439 C176.378049,29.7439024 176.45122,32.6341463 176.45122,35.5609756 L172.756098,35.5609756 L172.756098,18.3658537 C173.853659,18.402439 174.95122,18.402439 176.158537,18.402439 Z" id="Shape"></path>
            </g>
        </g>
    </g>
</svg>