<?xml version="1.0" encoding="UTF-8"?>
<svg width="128px" height="54px" viewBox="0 0 128 54" version="1.1" xmlns="http://www.w3.org/2000/svg" xmlns:xlink="http://www.w3.org/1999/xlink">
    <title>gitlogo.560624ef</title>
    <g id="HiFi" stroke="none" stroke-width="1" fill="none" fillRule="evenodd">
        <g id="Artboard" transform="translate(-324.000000, -152.000000)" fillRule="nonzero">
            <g id="gitlogo.560624ef" transform="translate(324.000000, 152.000000)">
                <path d="M76.5498338,18.4736842 C73.7908585,18.4736842 71.7362631,19.862841 71.7362631,23.2061478 C71.7362631,25.7251022 73.0903968,27.4736842 76.4013977,27.4736842 C79.2076237,27.4736842 81.1135524,25.7782314 81.1135524,23.1021111 C81.1135524,20.0694017 79.4079202,18.4738733 76.5498338,18.4738733 L76.5498338,18.4736842 Z M71.1833549,41.6842105 C70.5209341,42.4771901 69.8608053,43.3197138 69.8608053,44.3140633 C69.8608053,46.2977439 72.4544525,46.8947368 76.0172678,46.8947368 C78.9687401,46.8947368 82.9890103,46.693148 82.9890103,44.0167529 C82.9890103,42.4260036 81.0548838,42.3275085 78.6109151,42.178055 L71.183121,41.6842105 L71.1833549,41.6842105 Z M86.2564311,18.4886293 C87.1750028,19.6676598 88.1476082,21.3078637 88.1476082,23.6651711 C88.1476082,29.3532903 83.7004056,32.6841964 77.2614764,32.6841964 C75.6240225,32.6841964 74.1416216,32.4796973 73.2224861,32.2239086 L71.5351333,34.9395086 L76.5438158,35.2462902 C85.3874764,35.8111922 90.5996073,36.0679231 90.5996073,42.8813242 C90.5996073,48.7762413 85.438221,52.1052632 76.5438158,52.1052632 C67.2923187,52.1052632 63.7655672,49.7476261 63.7655672,45.6997108 C63.7655672,43.3926661 64.7880714,42.1655398 66.5771014,40.4718228 C64.8897486,39.756745 64.3282687,38.476294 64.3282687,37.0920201 C64.3282687,35.9638176 64.8897486,34.9391553 65.8112335,33.9648028 C66.7309798,32.992052 67.7529202,32.0170401 68.9798594,30.8899681 C66.4755182,29.660298 64.5837773,26.9953847 64.5837773,23.2026457 C64.5837773,17.310084 68.4689362,13.2631579 76.2879313,13.2631579 C78.4863013,13.2631579 79.8159984,13.4660082 80.9916762,13.7753948 L90.9597062,13.7753948 L90.9597062,18.1302095 L86.2564311,18.4890438" id="Shape" fill="#413000"></path>
                <path d="M99.8422248,9 C96.8884873,9 95.1794864,7.33019394 95.1794864,4.44748745 C95.1794864,1.56840573 96.8885349,3.11329909e-13 99.8422248,3.11329909e-13 C102.847156,3.11329909e-13 104.556776,1.56840573 104.556776,4.44748745 C104.556776,7.33014747 102.847156,9 99.8422248,9 Z M93.3044035,40.2627768 L93.3044035,36.1704247 L95.9059299,35.8087071 C96.6202013,35.7035386 96.7215436,35.5492994 96.7215436,34.7700284 L96.7215436,19.5328667 C96.7215436,18.9639326 96.569202,18.5995709 96.0577091,18.4453079 L93.3044035,17.4597018 L93.8651145,13.2631579 L104.421687,13.2631579 L104.421687,34.7704095 C104.421687,35.601181 104.470905,35.7039436 105.237863,35.8090882 L107.838827,36.1708058 L107.838827,40.2631579 L93.3040285,40.2631579" id="Shape" fill="#413000"></path>
                <path d="M127.999999,38.1898162 C125.808661,39.2776162 122.600591,40.2631579 119.695912,40.2631579 C113.635132,40.2631579 111.343788,37.7761585 111.343788,31.9132509 L111.343788,18.3264767 C111.343788,18.015945 111.343788,17.8076049 110.934703,17.8076049 L107.369962,17.8076049 L107.369962,13.1921062 C111.853488,12.6720903 113.634875,10.3897029 114.195304,4.73684211 L119.034563,4.73684211 L119.034563,12.1037341 C119.034563,12.4654522 119.034563,12.6221291 119.442478,12.6221291 L126.623647,12.6221291 L126.623647,17.8075096 L119.03468,17.8075096 L119.03468,30.2019847 C119.03468,33.2622984 119.748677,34.4541207 122.497542,34.4541207 C123.925535,34.4541207 125.40091,34.0921642 126.623507,33.6249937 L127.999999,38.1901975" id="Path" fill="#413000"></path>
                <path d="M52.4427905,24.5948371 L29.1043621,1.01844311 C27.7615286,-0.339481037 25.5818053,-0.339481037 24.2372828,1.01844311 L19.3913159,5.91489537 L25.5382671,12.1252843 C26.9672855,11.6378195 28.6052214,11.9646541 29.743782,13.1151924 C30.8882541,14.2728976 31.2094419,15.9418626 30.7148521,17.3904636 L36.6394208,23.376175 C38.0727555,22.8771445 39.7265021,23.199552 40.8710211,24.3579303 C42.4711426,25.9740913 42.4711426,28.5929112 40.8710211,30.2094988 C39.270665,31.8266079 36.6785958,31.8266079 35.0773483,30.2094988 C33.8741842,28.9929698 33.5765952,27.2069261 34.1859888,25.7092184 L28.6606763,20.1268836 L28.6602071,34.8167144 C29.0503147,35.0118236 29.4184656,35.2722314 29.7435474,35.5992462 C31.3431998,37.2152176 31.3431998,39.8335635 29.7435474,41.4522367 C28.1434259,43.0681608 25.5501838,43.0681608 23.9517513,41.4522367 C22.3518644,39.8337057 22.3518644,37.2153598 23.9517513,35.5992462 C24.347137,35.200491 24.8046396,34.8986695 25.2928019,34.696365 L25.2928019,19.8700213 C24.804405,19.66857 24.3474419,19.369 23.9514698,18.9670454 C22.7396262,17.7436433 22.4477609,15.9466975 23.0692589,14.443207 L17.0095717,8.32003462 L1.00835664,24.4859111 C-0.336118878,25.8448781 -0.336118878,28.0470966 1.00835664,29.4051155 L24.3453776,52.9815569 C25.6889617,54.339481 27.8679344,54.339481 29.2133952,52.9815569 L52.442509,29.5165063 C53.7865623,28.1579185 53.7865623,25.9550364 52.442509,24.5968279" id="Path" fill="#F05133"></path>
            </g>
        </g>
    </g>
</svg>