<?xml version="1.0" encoding="UTF-8"?>
<svg width="54px" height="54px" viewBox="0 0 54 54" version="1.1" xmlns="http://www.w3.org/2000/svg" xmlns:xlink="http://www.w3.org/1999/xlink">
    <title>linkedin</title>
    <g id="HiFi" stroke="none" stroke-width="1" fill="none" fillRule="evenodd">
        <g id="Artboard" transform="translate(-683.000000, -339.000000)" fillRule="nonzero">
            <g id="linkedin" transform="translate(683.000000, 339.000000)">
                <path d="M0,3.86827195 C0,1.73300283 1.78745645,0 3.99113082,0 L50.0088692,0 C52.2132563,0 54,1.73300283 54,3.86827195 L54,50.1324363 C54,52.2684136 52.2132563,54 50.0088692,54 L3.99113082,54 C1.78745645,54 0,52.2684136 0,50.1331445 L0,3.86756374 L0,3.86827195 Z" id="Path" fill="#006699"></path>
                <path d="M15.999301,45 L15.999301,21 L8,21 L8,45 L16,45 L15.999301,45 Z M12.4737823,17 C15.2633419,17 17,15.2220728 17,13.0003362 C16.9475647,10.7281668 15.2633419,9 12.5269168,9 C9.78839431,9 8,10.7281668 8,13.0003362 C8,15.2220728 9.73595898,17 12.421347,17 L12.4730832,17 L12.4737823,17 Z M21,44.9992905 L29.1894824,44.9992905 L29.1894824,31.3598956 C29.1894824,30.6305693 29.2431581,29.8998241 29.4592923,29.3790794 C30.0511565,27.9197174 31.3987748,26.4092741 33.6617428,26.4092741 C36.6246422,26.4092741 37.8105176,28.6490436 37.8105176,31.9331404 L37.8105176,44.9992905 L46,44.9992905 L46,30.9938135 C46,23.4912594 41.960008,20 36.5716821,20 C32.1538131,20 30.213615,22.4476418 29.1358067,24.114876 L29.1901981,24.114876 L29.1901981,20.5732448 L21.0007157,20.5732448 C21.1073514,22.864805 21,45 21,45 L21,44.9992905 Z" id="Shape" fill="#FFFFFF"></path>
            </g>
        </g>
    </g>
</svg>