<?xml version="1.0" encoding="UTF-8"?>
<svg width="42px" height="42px" viewBox="0 0 42 42" version="1.1" xmlns="http://www.w3.org/2000/svg" xmlns:xlink="http://www.w3.org/1999/xlink">
    <title>Group 5</title>
    <g id="HiFi" stroke="none" stroke-width="1" fill="none" fill-rule="evenodd">
        <g id="Mobile" transform="translate(-198.000000, -16.000000)">
            <g id="Group-5" transform="translate(198.000000, 16.000000)">
                <circle id="Oval" stroke-opacity="0.15" stroke="#FFFFFF" stroke-width="2" fill="#000000" cx="21" cy="21" r="20"></circle>
                <g id="☰-2" transform="translate(14.000000, 15.000000)" fill="#FFFFFF" fill-rule="nonzero">
                    <g id="☰">
                        <path d="M14,2 L1,2 C0.44771525,2 6.76353751e-17,1.55228475 0,1 C-6.76353751e-17,0.44771525 0.44771525,1.01453063e-16 1,0 L14,0 C14.5522847,-1.01453063e-16 15,0.44771525 15,1 C15,1.55228475 14.5522847,2 14,2 Z M14,8 L1,8 C0.44771525,8 6.76353751e-17,7.55228475 0,7 C-6.76353751e-17,6.44771525 0.44771525,6 1,6 L14,6 C14.5522847,6 15,6.44771525 15,7 C15,7.55228475 14.5522847,8 14,8 Z M14,14 L1,14 C0.44771525,14 6.76353751e-17,13.5522847 0,13 C-6.76353751e-17,12.4477153 0.44771525,12 1,12 L14,12 C14.5522847,12 15,12.4477153 15,13 C15,13.5522847 14.5522847,14 14,14 Z"></path>
                    </g>
                </g>
            </g>
        </g>
    </g>
</svg>