<?xml version="1.0" encoding="UTF-8"?>
<svg width="212px" height="54px" viewBox="0 0 212 54" version="1.1" xmlns="http://www.w3.org/2000/svg" xmlns:xlink="http://www.w3.org/1999/xlink">
    <title>parcellogo.01309151</title>
    <g id="HiFi" stroke="none" stroke-width="1" fill="none" fill-rule="evenodd">
        <g id="Artboard" transform="translate(-593.000000, -151.000000)" fill-rule="nonzero">
            <g id="parcellogo.01309151" transform="translate(593.000000, 151.000000)">
                <g id="Group">
                    <polygon id="Path" fill="#A98258" points="54 14.8965517 44.6896552 0 9.31034483 0 0 14.8965517 0 54 54 54"></polygon>
                    <polygon id="Path" fill="#DAAE86" points="0 14.8965517 54 14.8965517 44.6896552 0 9.31034483 0"></polygon>
                    <polygon id="Path" fill="#D8B18B" points="21.4137931 48.4137931 21.4137931 54 32.5862069 54 32.5862069 48.4137931 30.7241379 50.2758621 27 46.5517241 23.2758621 50.2758621"></polygon>
                    <polygon id="Path" fill="#E8D5B2" points="18.6206897 27.9310345 35.3793103 27.9310345 35.3793103 42.8275862 18.6206897 42.8275862"></polygon>
                    <path d="M27.9310345,38.1724138 L22.3448276,38.1724138 C21.8306314,38.1724138 21.4137931,38.5892521 21.4137931,39.1034483 C21.4137931,39.6176444 21.8306314,40.0344828 22.3448276,40.0344828 L27.9310345,40.0344828 C28.4452306,40.0344828 28.862069,39.6176444 28.862069,39.1034483 C28.862069,38.5892521 28.4452306,38.1724138 27.9310345,38.1724138 Z M31.6551724,38.1724138 L30.7241379,38.1724138 C30.2099418,38.1724138 29.7931034,38.5892521 29.7931034,39.1034483 C29.7931034,39.6176444 30.2099418,40.0344828 30.7241379,40.0344828 L31.6551724,40.0344828 C32.1693686,40.0344828 32.5862069,39.6176444 32.5862069,39.1034483 C32.5862069,38.5892521 32.1693686,38.1724138 31.6551724,38.1724138 Z M26.0689655,32.5862069 L31.6551724,32.5862069 C32.1693686,32.5862069 32.5862069,32.1693686 32.5862069,31.6551724 C32.5862069,31.1409763 32.1693686,30.7241379 31.6551724,30.7241379 L26.0689655,30.7241379 C25.5547694,30.7241379 25.137931,31.1409763 25.137931,31.6551724 C25.137931,32.1693686 25.5547694,32.5862069 26.0689655,32.5862069 Z M31.6551724,34.4482759 L29.7931034,34.4482759 C29.2789073,34.4482759 28.862069,34.8651142 28.862069,35.3793103 C28.862069,35.8935065 29.2789073,36.3103448 29.7931034,36.3103448 L31.6551724,36.3103448 C32.1693686,36.3103448 32.5862069,35.8935065 32.5862069,35.3793103 C32.5862069,34.8651142 32.1693686,34.4482759 31.6551724,34.4482759 Z M22.3448276,36.3103448 L24.2068966,36.3103448 C24.7210927,36.3103448 25.137931,35.8935065 25.137931,35.3793103 C25.137931,34.8651142 24.7210927,34.4482759 24.2068966,34.4482759 L22.3448276,34.4482759 C21.8306314,34.4482759 21.4137931,34.8651142 21.4137931,35.3793103 C21.4137931,35.8935065 21.8306314,36.3103448 22.3448276,36.3103448 Z M22.3448276,32.5862069 L23.2758621,32.5862069 C23.7900582,32.5862069 24.2068966,32.1693686 24.2068966,31.6551724 C24.2068966,31.1409763 23.7900582,30.7241379 23.2758621,30.7241379 L22.3448276,30.7241379 C21.8306314,30.7241379 21.4137931,31.1409763 21.4137931,31.6551724 C21.4137931,32.1693686 21.8306314,32.5862069 22.3448276,32.5862069 Z M26.3482759,34.7275862 C26.1753285,34.9011652 26.0753866,35.1343629 26.0689655,35.3793103 C26.0689655,35.6306897 26.162069,35.8634483 26.3482759,36.0310345 C26.5229078,36.2024172 26.7554594,36.3020822 27,36.3103448 C27.2465072,36.3069154 27.4826168,36.2104762 27.6610345,36.0403448 C27.8311659,35.8619272 27.927605,35.6258175 27.9310345,35.3793103 C27.927605,35.1328032 27.8311659,34.8966935 27.6610345,34.7182759 C27.2871497,34.3751129 26.7128503,34.3751129 26.3389655,34.7182759 L26.3482759,34.7275862 Z" id="Shape" fill="#D4C3A5"></path>
                    <polygon id="Path" fill="#F4D5BD" points="21.4137931 0 32.5862069 0 32.5862069 14.8965517 21.4137931 14.8965517"></polygon>
                    <polygon id="Path" fill="#D8B18B" points="32.5862069 21.4137931 32.5862069 14.8965517 21.4137931 14.8965517 21.4137931 21.4137931 23.2758621 19.5517241 27 23.2758621 30.7241379 19.5517241"></polygon>
                </g>
                <path d="M81.0830092,12.1427194 C84.5262245,12.1427194 86.9029062,14.5342334 86.9029062,17.9942141 L86.9029062,25.5159113 C86.9029062,28.9778206 84.5243063,31.367406 81.0830092,31.367406 L71.9023807,31.367406 L71.9023807,41.8360656 L66,41.8360656 L66,12.1427194 L81.0830092,12.1427194 Z M84.3439931,18.5708775 C84.3439931,16.0154291 82.8669592,14.5323047 80.3272283,14.5323047 L68.5224669,14.5323047 L68.5224669,39.4233365 L69.3434675,39.4233365 L69.3434675,28.954677 L80.3291465,28.954677 C82.8707957,28.954677 84.3459113,27.4696239 84.3459113,24.9161041 L84.3439931,18.5708775 Z M80.3272283,15.3558341 C82.3758934,15.3558341 83.5249107,16.509161 83.5249107,18.5708775 L83.5249107,24.9353905 C83.5249107,26.9951784 82.3778116,28.1504339 80.3272283,28.1504339 L69.3434675,28.1504339 L69.3434675,15.3751205 L80.3272283,15.3558341 Z M79.5887114,25.7415622 C80.4902775,25.7415622 80.9832615,25.2478303 80.9832615,24.3394407 L80.9832615,19.147541 C80.9832615,18.24108 80.4921957,17.7454195 79.5887114,17.7454195 L71.8831984,17.7454195 L71.8831984,25.7396336 L79.5887114,25.7415622 Z M93.3040256,41.8148505 L87.1963948,41.8148505 L96.7050399,12.1427194 L103.610653,12.1427194 L113.119298,41.8148505 L106.74887,41.8148505 L104.822971,35.1378978 L95.2702071,35.1378978 L93.3040256,41.8148505 Z M109.616618,39.4233365 L102.068399,14.5323047 L98.2971673,14.5323047 L90.5916544,39.4233365 L91.3704541,39.4233365 L93.4191192,32.7463838 L106.8467,32.7463838 L108.855082,39.4233365 L109.616618,39.4233365 Z M98.7537051,15.3539055 L93.6320423,31.9402122 L106.583903,31.9402122 L101.542805,15.3539055 L98.7537051,15.3539055 Z M100.106054,18.632594 L103.221253,29.5101254 L96.9659186,29.5101254 L100.106054,18.632594 Z M132.441586,41.8148505 L127.684386,30.8119576 L122.927186,30.8119576 L122.927186,41.8148505 L117.03056,41.8148505 L117.03056,12.1427194 L132.073287,12.1427194 C135.516502,12.1427194 137.893184,14.5342334 137.893184,17.9942141 L137.893184,24.9373192 C137.893184,27.7396336 136.335584,29.8418515 133.876419,30.5419479 L138.79475,41.7936355 L132.441586,41.8148505 Z M135.023518,39.4233365 L130.266318,28.460945 L131.332852,28.460945 C133.874501,28.460945 135.349616,26.975892 135.349616,24.4223722 L135.349616,18.5689489 C135.349616,16.0135005 133.872583,14.5303761 131.332852,14.5303761 L119.568373,14.5303761 L119.568373,39.4214079 L120.387455,39.4214079 L120.387455,28.4628737 L129.403116,28.4628737 L134.160316,39.4252652 L135.023518,39.4233365 Z M134.532452,24.4223722 C134.532452,26.4821601 133.385353,27.6374156 131.33477,27.6374156 L120.391292,27.6374156 L120.391292,15.3558341 L131.33477,15.3558341 C133.383435,15.3558341 134.532452,16.509161 134.532452,18.5708775 L134.532452,24.4223722 Z M130.600089,25.2902604 C131.501655,25.2902604 131.994639,24.7965284 131.994639,23.8881389 L131.994639,19.147541 C131.994639,18.24108 131.503574,17.7454195 130.600089,17.7454195 L122.934859,17.7454195 L122.934859,25.2671167 L130.600089,25.2902604 Z M158.06141,18.9836066 C158.06141,18.0771456 157.570344,17.5814851 156.666859,17.5814851 L150.292595,17.5814851 C149.391029,17.5814851 148.898045,18.075217 148.898045,18.9836066 L148.898045,34.9913211 C148.898045,35.8977821 149.389111,36.391514 150.292595,36.391514 L156.686042,36.391514 C157.587608,36.391514 158.080592,35.8977821 158.080592,34.9913211 L158.080592,31.3654773 L163.982972,31.3654773 L163.982972,36.1485053 C163.982972,39.6104147 161.604373,42 158.163075,42 L148.796379,42 C145.353164,42 142.976482,39.608486 142.976482,36.1485053 L142.976482,17.8514947 C142.976482,14.3895853 145.355082,12 148.796379,12 L158.141975,12 C161.58519,12 163.961872,14.391514 163.961872,17.8514947 L163.961872,22.6345227 L158.06141,22.6345227 L158.06141,18.9836066 Z M157.405376,15.1918997 C159.454041,15.1918997 160.603059,16.3452266 160.603059,18.4069431 L160.603059,20.3027965 L161.418305,20.3027965 L161.418305,18.4069431 C161.418305,15.8514947 159.941271,14.3683703 157.40154,14.3683703 L149.531059,14.3683703 C146.98941,14.3683703 145.514295,15.8534233 145.514295,18.4069431 L145.514295,35.5718419 C145.514295,38.1272903 146.991329,39.6104147 149.531059,39.6104147 L157.40154,39.6104147 C159.943189,39.6104147 161.418305,38.1253616 161.418305,35.5718419 L161.418305,33.75892 L160.599222,33.75892 L160.599222,35.5718419 C160.599222,37.6316297 159.452123,38.7868852 157.40154,38.7868852 L149.531059,38.7868852 C147.482394,38.7868852 146.333377,37.6335583 146.333377,35.5718419 L146.333377,18.4069431 C146.333377,16.3471553 147.480476,15.1918997 149.531059,15.1918997 L157.405376,15.1918997 Z M188.513244,12.144648 L188.513244,17.7492768 L175.1106,17.7492768 L175.1106,23.8476374 L185.973513,23.8476374 L185.973513,29.4522662 L175.1106,29.4522662 L175.1106,36.2102218 L188.513244,36.2102218 L188.513244,41.8148505 L169.206301,41.8148505 L169.206301,12.1427194 L188.513244,12.144648 Z M185.971594,39.4233365 L185.971594,38.5998071 L172.568951,38.5998071 L172.568951,27.0607522 L183.431864,27.0607522 L183.431864,26.2372228 L172.568951,26.2372228 L172.568951,15.3596914 L185.971594,15.3596914 L185.971594,14.536162 L171.74795,14.536162 L171.74795,39.4271938 L185.971594,39.4233365 Z M199.621689,12.1427194 L199.621689,36.2121504 L212,36.2121504 L212,41.8167792 L193.719308,41.8167792 L193.719308,12.1427194 L199.621689,12.1427194 Z M209.458351,39.4252652 L209.458351,38.6017358 L197.08004,38.6017358 L197.08004,14.5323047 L196.260958,14.5323047 L196.260958,39.4233365 L209.458351,39.4252652 Z" id="Shape" fill="#A98258"></path>
            </g>
        </g>
    </g>
</svg>