<?xml version="1.0" encoding="UTF-8"?>
<svg width="99px" height="42px" viewBox="0 0 99 42" version="1.1" xmlns="http://www.w3.org/2000/svg" xmlns:xlink="http://www.w3.org/1999/xlink">
    <title>Group</title>
    <g id="HiFi" stroke="none" stroke-width="1" fill="none" fill-rule="evenodd">
        <g id="Mobile" transform="translate(-16.000000, -16.000000)" fill="#FFFFFF" fill-rule="nonzero">
            <g id="Group" transform="translate(16.000000, 16.000000)">
                <path d="M19.566,21 L16.34,12.63 L15.316,14.55 L15.316,21 L12,21 L12,0 L15.316,0 L15.316,9.09 L15.376,9.09 L19.656,0 L22.972,0 L18.36,9.36 L22.972,21 L19.566,21 L19.566,21 Z M27.926,3 L27.926,8.85 L32.477,8.85 L32.477,11.85 L27.926,11.85 L27.926,18 L33.653,18 L33.653,21 L24.61,21 L24.61,0 L33.653,0 L33.653,3 L27.926,3 L27.926,3 Z M35.833,21 L35.833,0 L39.149,0 L39.149,21 L35.833,21 Z M52,21 L48.624,21 C48.444,20.46 48.323,20.13 48.323,18.42 L48.323,15.12 C48.323,13.17 47.66,12.45 46.153,12.45 L45.007,12.45 L45.007,21 L41.691,21 L41.691,0 L46.695,0 C50.131,0 51.608,1.59 51.608,4.83 L51.608,6.48 C51.608,8.64 50.915,10.02 49.438,10.71 L49.438,10.77 C51.096,11.46 51.638,13.02 51.638,15.21 L51.638,18.45 C51.638,19.47 51.668,20.22 52,21 L52,21 Z M46.605,3 L45.007,3 L45.007,9.45 L46.303,9.45 C47.539,9.45 48.293,8.91 48.293,7.23 L48.293,5.16 C48.293,3.66 47.78,3 46.605,3 L46.605,3 Z" id="Shape"></path>
                <path d="M6.72,34.11 L9.84,34.11 L9.84,36.838 C9.84,40.123 8.16,42 4.92,42 C1.68,42 0,40.123 0,36.838 L0,26.162 C0,22.877 1.68,21 4.92,21 C8.16,21 9.84,22.877 9.84,26.162 L9.84,28.156 L6.72,28.156 L6.72,25.956 C6.72,24.49 6.06,23.933 5.01,23.933 C3.96,23.933 3.3,24.49 3.3,25.957 L3.3,37.043 C3.3,38.51 3.96,39.038 5.01,39.038 C6.06,39.038 6.72,38.51 6.72,37.043 L6.72,34.11 Z M14.88,25.957 L14.88,37.043 C14.88,38.51 15.54,39.067 16.59,39.067 C17.64,39.067 18.3,38.51 18.3,37.043 L18.3,25.957 C18.3,24.49 17.64,23.933 16.59,23.933 C15.54,23.933 14.88,24.49 14.88,25.957 L14.88,25.957 Z M11.58,36.838 L11.58,26.162 C11.58,22.877 13.35,21 16.59,21 C19.83,21 21.6,22.877 21.6,26.162 L21.6,36.838 C21.6,40.123 19.83,42 16.59,42 C13.35,42 11.58,40.123 11.58,36.838 Z M26.19,21.235 L28.68,37.982 L28.74,37.982 L31.23,21.235 L34.26,21.235 L31.02,41.765 L26.1,41.765 L22.86,21.235 L26.19,21.235 L26.19,21.235 Z M35.79,41.765 L35.79,21.235 L39.09,21.235 L39.09,41.765 L35.79,41.765 Z M48.54,41.765 L44.49,26.895 L44.43,26.895 L44.43,41.765 L41.46,41.765 L41.46,21.235 L45.6,21.235 L48.93,33.524 L48.99,33.524 L48.99,21.234 L51.93,21.234 L51.93,41.765 L48.54,41.765 Z M59.25,33.26 L59.25,30.327 L63.87,30.327 L63.87,36.838 C63.87,40.123 62.19,42 58.95,42 C55.71,42 54.03,40.123 54.03,36.838 L54.03,26.162 C54.03,22.877 55.71,21 58.95,21 C62.19,21 63.87,22.877 63.87,26.162 L63.87,28.156 L60.75,28.156 L60.75,25.956 C60.75,24.49 60.09,23.933 59.04,23.933 C57.99,23.933 57.33,24.49 57.33,25.957 L57.33,37.043 C57.33,38.51 57.99,39.038 59.04,39.038 C60.09,39.038 60.75,38.51 60.75,37.043 L60.75,33.26 L59.25,33.26 L59.25,33.26 Z M65.04,24.168 L65.04,21.235 L75.24,21.235 L75.24,24.168 L71.79,24.168 L71.79,41.765 L68.49,41.765 L68.49,24.168 L65.04,24.168 Z M79.71,25.957 L79.71,37.043 C79.71,38.51 80.37,39.067 81.42,39.067 C82.47,39.067 83.13,38.51 83.13,37.043 L83.13,25.957 C83.13,24.49 82.47,23.933 81.42,23.933 C80.37,23.933 79.71,24.49 79.71,25.957 L79.71,25.957 Z M76.41,36.838 L76.41,26.162 C76.41,22.877 78.18,21 81.42,21 C84.66,21 86.43,22.877 86.43,26.162 L86.43,36.838 C86.43,40.123 84.66,42 81.42,42 C78.18,42 76.41,40.123 76.41,36.838 Z M95.61,41.765 L91.56,26.895 L91.5,26.895 L91.5,41.765 L88.53,41.765 L88.53,21.235 L92.67,21.235 L96,33.524 L96.06,33.524 L96.06,21.234 L99,21.234 L99,41.765 L95.61,41.765 Z" id="Shape"></path>
            </g>
        </g>
    </g>
</svg>