<?xml version="1.0" encoding="UTF-8"?>
<svg width="66px" height="54px" viewBox="0 0 66 54" version="1.1" xmlns="http://www.w3.org/2000/svg" xmlns:xlink="http://www.w3.org/1999/xlink">
    <title>Logo black</title>
    <g id="HiFi" stroke="none" stroke-width="1" fill="none" fill-rule="evenodd">
        <g id="Artboard" transform="translate(-864.000000, -339.000000)" fill="#1D9BF0" fill-rule="nonzero">
            <g id="Logo-black" transform="translate(864.000000, 339.000000)">
                <path d="M59.2431444,13.44316 C59.2833638,14.029023 59.2833638,14.6148861 59.2833638,15.2061487 C59.2833638,33.2221115 45.662401,54 20.7558806,54 L20.7558806,53.9892007 C13.3984156,54 6.19378428,51.8779339 0,47.8767865 C1.06983547,48.0063783 2.14503352,48.0711742 3.22291286,48.0738741 C9.32017063,48.0792737 15.2431444,46.0193038 20.0399756,42.2260432 C14.2457038,42.1153502 9.1646557,38.3112903 7.38964046,32.7577409 C9.41937843,33.151916 11.5107861,33.0709211 13.502986,32.5228557 C7.18586228,31.2377368 2.64107252,25.6490896 2.64107252,19.1586993 C2.64107252,19.099303 2.64107252,19.0426066 2.64107252,18.9859102 C4.52333943,20.0415435 6.63083486,20.6274065 8.78659354,20.6922025 C2.83680683,16.6883552 1.00280317,8.71845826 4.59573431,2.48725158 C11.4705667,11.0052139 21.613894,16.1834871 32.5026204,16.7315525 C31.4113346,11.9960514 32.9021328,7.0337646 36.4199878,3.70487473 C41.8737355,-1.45719943 50.4511883,-1.19261613 55.5778184,4.2961374 C58.6103595,3.69407541 61.51688,2.57364613 64.1767215,0.986146338 C63.1658745,4.14224712 61.0503352,6.82317789 58.2242535,8.52677036 C60.9082267,8.20819047 63.5305302,7.48463614 66,6.38040584 C64.1820841,9.1234327 61.8922608,11.5127819 59.2431444,13.44316 Z" id="white_background"></path>
            </g>
        </g>
    </g>
</svg>