<svg width="64" height="64" viewBox="0 0 64 64" fill="none" xmlns="http://www.w3.org/2000/svg">
<g clip-path="url(#clip0_57_8)">
<circle cx="32" cy="32" r="31" stroke="#FF7A00" stroke-width="2"/>
<path d="M43.925 45.5C40.8 45.5 37.7125 44.8188 34.6625 43.4563C31.6125 42.0938 28.8375 40.1625 26.3375 37.6625C23.8375 35.1625 21.9063 32.3875 20.5438 29.3375C19.1813 26.2875 18.5 23.2 18.5 20.075C18.5 19.625 18.65 19.25 18.95 18.95C19.25 18.65 19.625 18.5 20.075 18.5H26.15C26.5 18.5 26.8125 18.6187 27.0875 18.8563C27.3625 19.0938 27.525 19.375 27.575 19.7L28.55 24.95C28.6 25.35 28.5875 25.6875 28.5125 25.9625C28.4375 26.2375 28.3 26.475 28.1 26.675L24.4625 30.35C24.9625 31.275 25.5563 32.1688 26.2438 33.0313C26.9313 33.8938 27.6875 34.725 28.5125 35.525C29.2875 36.3 30.1 37.0188 30.95 37.6813C31.8 38.3438 32.7 38.95 33.65 39.5L37.175 35.975C37.4 35.75 37.6938 35.5813 38.0563 35.4688C38.4188 35.3563 38.775 35.325 39.125 35.375L44.3 36.425C44.65 36.525 44.9375 36.7063 45.1625 36.9688C45.3875 37.2313 45.5 37.525 45.5 37.85V43.925C45.5 44.375 45.35 44.75 45.05 45.05C44.75 45.35 44.375 45.5 43.925 45.5Z" fill="black"/>
</g>
<defs>
<clipPath id="clip0_57_8">
<rect width="64" height="64" fill="white"/>
</clipPath>
</defs>
</svg>
