<svg width="64" height="64" viewBox="0 0 64 64" fill="none" xmlns="http://www.w3.org/2000/svg">
<g clip-path="url(#clip0_57_2)">
<circle cx="32" cy="32" r="31" stroke="#FF7A00" stroke-width="2"/>
<path d="M20 44C19.175 44 18.4688 43.7063 17.8813 43.1188C17.2937 42.5313 17 41.825 17 41V23C17 22.175 17.2937 21.4688 17.8813 20.8813C18.4688 20.2937 19.175 20 20 20H44C44.825 20 45.5313 20.2937 46.1188 20.8813C46.7063 21.4688 47 22.175 47 23V41C47 41.825 46.7063 42.5313 46.1188 43.1188C45.5313 43.7063 44.825 44 44 44H20ZM32 33.5L44 26V23L32 30.5L20 23V26L32 33.5Z" fill="black"/>
</g>
<defs>
<clipPath id="clip0_57_2">
<rect width="64" height="64" fill="white"/>
</clipPath>
</defs>
</svg>
