<?xml version="1.0" encoding="UTF-8"?>
<svg width="48px" height="48px" viewBox="0 0 48 48" version="1.1" xmlns="http://www.w3.org/2000/svg" xmlns:xlink="http://www.w3.org/1999/xlink">
    <title>Group 8 Copy</title>
    <g id="HiFi" stroke="none" stroke-width="1" fill="none" fillRule="evenodd">
        <g id="Desktop-HD-Copy" transform="translate(-377.000000, -1946.000000)">
            <g id="Group-8-Copy" transform="translate(377.000000, 1946.000000)">
                <rect id="Rectangle-Copy-6" x="0" y="0" width="48" height="48"></rect>
                <g id="Group" transform="translate(1.000000, 12.000000)">
                    <circle id="Oval" stroke="#000000" cx="8" cy="18" r="8"></circle>
                    <circle id="Oval" stroke="#000000" cx="38" cy="18" r="8"></circle>
                    <polygon id="Path" stroke="#000000" points="24.4841772 18 32 5 16.5628956 5 7 18"></polygon>
                    <path d="M38,18 L32.001,3.38 C31.8742811,3.07154392 31.9096573,2.72021843 32.0953279,2.44321795 C32.2809985,2.16621747 32.5925291,1.99999999 32.926,1.99999999 L36.936,1.99999999 C37.2260167,1.99999999 37.5017651,2.1258316 37.6917351,2.3449687 C37.8817051,2.5641058 37.9671824,2.85492217 37.926,3.142 C37.708,4.666 37.003,5.429 35.812,5.429 M21,18 L18,5.533 L17,1" id="Shape" stroke="#000000" stroke-linecap="round"></path>
                    <rect id="Rectangle" fill="#000000" fillRule="nonzero" x="13" y="0" width="7" height="2" rx="1"></rect>
                </g>
            </g>
        </g>
    </g>
</svg>