<?xml version="1.0" encoding="UTF-8"?>
<svg width="48px" height="48px" viewBox="0 0 48 48" version="1.1" xmlns="http://www.w3.org/2000/svg" xmlns:xlink="http://www.w3.org/1999/xlink">
    <title>Group Copy 10</title>
    <g id="HiFi" stroke="none" stroke-width="1" fill="none" fillRule="evenodd">
        <g id="Desktop-HD-Copy" transform="translate(-64.000000, -1936.000000)">
            <g id="Group-Copy-10" transform="translate(64.000000, 1936.000000)">
                <rect id="Rectangle-Copy-4" x="0" y="0" width="48" height="48"></rect>
                <path d="M24,0 C10.7662222,0 0,10.7662222 0,24 C0,37.2337778 10.7662222,48 24,48 C37.2337778,48 48,37.2337778 48,24 C48,10.7662222 37.2337778,0 24,0 Z M25.5235556,7.79733333 L31.6942222,4.47822222 C35.1111111,5.83111111 38.0942222,8.04977778 40.3626667,10.8693333 L38.8924444,17.6551111 L34.1848889,19.9626667 L25.5235556,13.6515556 L25.5235556,7.79911111 L25.5235556,7.79733333 Z M16.3555556,4.46044444 L22.5262222,7.79022222 L22.5262222,13.6533333 L13.872,19.9626667 L9.14133333,17.6515556 L7.67111111,10.8248889 C9.96561269,7.98639125 12.9581673,5.79266799 16.3555556,4.45866667 L16.3555556,4.46044444 Z M6.68977778,35.8613333 C4.68101406,32.9450765 3.44762477,29.5654919 3.10577778,26.0408889 L8.18488889,20.5226667 L12.816,22.7875556 L16.3057778,32.6968889 L13.3546667,36.2311111 L6.68977778,35.8613333 L6.68977778,35.8613333 Z M29.3511111,44.2844444 C27.6373333,44.7377778 25.8524444,45.0026667 24.0017778,45.0026667 C21.8228058,45.0011078 19.6574483,44.6592092 17.584,43.9893333 L15.6977778,38.1155556 L18.7075556,34.4995556 L29.3084444,34.4995556 L32.2631111,37.9982222 L29.3511111,44.2826667 L29.3511111,44.2844444 Z M34.6044444,36.1315556 L31.7031111,32.6951111 L35.2408889,22.7893333 L39.8506667,20.5315556 L44.8995556,26.0444444 C44.5992842,29.0891432 43.6310973,32.0301249 42.064,34.6577778 L34.6044444,36.1315556 L34.6044444,36.1315556 Z" id="Shape" fill="#000000" fillRule="nonzero"></path>
            </g>
        </g>
    </g>
</svg>