<?xml version="1.0" encoding="UTF-8"?>
<svg width="48px" height="48px" viewBox="0 0 48 48" version="1.1" xmlns="http://www.w3.org/2000/svg" xmlns:xlink="http://www.w3.org/1999/xlink">
    <title>Group 2</title>
    <g id="HiFi" stroke="none" stroke-width="1" fill="none" fillRule="evenodd">
        <g id="Desktop-HD-Copy" transform="translate(-67.000000, -1648.000000)">
            <g id="Group-2" transform="translate(67.000000, 1648.000000)">
                <rect id="Rectangle-Copy-2" x="0" y="0" width="48" height="48"></rect>
                <g id="Group" transform="translate(1.000000, 11.000000)" fillRule="nonzero">
                    <path d="M12,1 L18.3,3 L12,3 L12,1 Z M33,1 L26.7,3 L33,3 L33,1 Z" id="Shape" fill="#000000"></path>
                    <circle id="Oval" fill="#000000" cx="15" cy="18" r="4"></circle>
                    <circle id="Oval" fill="#000000" cx="31" cy="18" r="4"></circle>
                    <path d="M4.27064233,27.8624088 C8.12524137,28.9368043 12.848615,23.602161 14.8193009,15.9465746 C16.7920778,8.2899511 15.265711,1.2120078 11.4111119,0.137612307 C7.55651289,-0.936783189 2.8331393,4.39682302 0.862453326,12.0534465 C-1.11032356,19.71007 0.416043294,26.7880133 4.27064233,27.8624088 Z M41.7293577,27.8624088 C37.8747586,28.9368043 33.151385,23.602161 31.1806991,15.9465746 C29.2079222,8.2899511 30.734289,1.2120078 34.5888881,0.137612307 C38.4434871,-0.936783189 43.1668607,4.39786008 45.1375467,12.0534465 C47.1103236,19.71007 45.5839567,26.7880133 41.7293577,27.8624088 Z" id="Shape" fill="#000000"></path>
                    <polygon id="Path" fill="#000000" points="12 2 33 2 33 18 12 18"></polygon>
                    <circle id="Oval" fill="#FFFFFF" cx="10.5" cy="9.5" r="5.5"></circle>
                    <circle id="Oval" fill="#FFFFFF" cx="34.5" cy="9.5" r="5.5"></circle>
                    <circle id="Oval" fill="#000000" cx="34.5" cy="6.5" r="1.5"></circle>
                    <circle id="Oval" fill="#000000" cx="31.5" cy="9.5" r="1.5"></circle>
                    <circle id="Oval" fill="#000000" cx="34.5" cy="12.5" r="1.5"></circle>
                    <circle id="Oval" fill="#000000" cx="37.5" cy="9.5" r="1.5"></circle>
                    <path d="M10.5,11 L12,11 L12,12.5 C12,13.3284271 11.3284271,14 10.5,14 C9.67157288,14 9,13.3284271 9,12.5 L9,11 L10.5,11 Z M10.5,8 L12,8 L12,6.5 C12,5.67157288 11.3284271,5 10.5,5 C9.67157288,5 9,5.67157288 9,6.5 L9,8 L10.5,8 Z M9,9.5 L9,11 L7.5,11 C6.67157288,11 6,10.3284271 6,9.5 C6,8.67157288 6.67157288,8 7.5,8 L9,8 L9,9.5 Z M12,9.5 L12,11 L13.5,11 C14.3284271,11 15,10.3284271 15,9.5 C15,8.67157288 14.3284271,8 13.5,8 L12,8 L12,9.5 Z" id="Shape" fill="#000000"></path>
                    <path d="M10.5,8 L12,8 L12,6.5 C12,5.67157288 11.3284271,5 10.5,5 C9.67157288,5 9,5.67157288 9,6.5 L9,8 L10.5,8 Z" id="Path" fill="#000000"></path>
                </g>
            </g>
        </g>
    </g>
</svg>