<?xml version="1.0" encoding="UTF-8"?>
<svg width="48px" height="48px" viewBox="0 0 48 48" version="1.1" xmlns="http://www.w3.org/2000/svg" xmlns:xlink="http://www.w3.org/1999/xlink">
    <title>Group 9</title>
    <g id="HiFi" stroke="none" stroke-width="1" fill="none" fillRule="evenodd">
        <g id="Desktop-HD-Copy" transform="translate(-704.000000, -1937.000000)">
            <g id="Group-9" transform="translate(704.000000, 1937.000000)">
                <rect id="Rectangle-Copy-7" x="0" y="0" width="48" height="48"></rect>
                <g id="Group" transform="translate(3.000000, 10.000000)" fill="#000000">
                    <path d="M7.00131035,12.6666667 L33.9565827,12.6666667 C37.301914,12.6666667 40.6118658,13.205 43.6938161,14.25 C44.4851999,14.517827 45,15.1418588 45,15.8333333 C45,16.5248079 44.4851999,17.1488396 43.6938161,17.4166667 C40.6118658,18.4616667 37.301914,19 33.9578931,19 L7,19 L7,12.6666667 L7.00131035,12.6666667 Z M18.9249928,12.6666667 L13.5517241,0 L17.5816756,0 L27.9655172,12.6666667 L18.9249928,12.6666667 Z" id="Shape"></path>
                    <path d="M3.8766,16.3181818 L0,9 L2.9081,9 L10.4,16.3181818 L3.8766,16.3181818 Z M3.8766,16.3181818 L0,23.6363636 L2.9081,23.6363636 L10.4,16.3181818 L3.8766,16.3181818 Z M17.8462255,19.4545455 L13,32 L16.6346692,32 L26,19.4545455 L17.8462255,19.4545455 Z" id="Shape"></path>
                </g>
            </g>
        </g>
    </g>
</svg>